<?xml version="1.0" encoding="UTF-8"?>
<svg width="61px" height="61px" viewBox="0 0 61 61" version="1.1" xmlns="http://www.w3.org/2000/svg" xmlns:xlink="http://www.w3.org/1999/xlink">
    <!-- Generator: Sketch 60 (88103) - https://sketch.com -->
    <title>arrow</title>
    <desc>Created with Sketch.</desc>
    <defs>
        <filter x="-48.8%" y="-48.8%" width="197.6%" height="197.6%" filterUnits="objectBoundingBox" id="filter-1">
            <feOffset dx="0" dy="0" in="SourceAlpha" result="shadowOffsetOuter1"></feOffset>
            <feGaussianBlur stdDeviation="5" in="shadowOffsetOuter1" result="shadowBlurOuter1"></feGaussianBlur>
            <feColorMatrix values="0 0 0 0 1   0 0 0 0 1   0 0 0 0 1  0 0 0 0.5 0" type="matrix" in="shadowBlurOuter1" result="shadowMatrixOuter1"></feColorMatrix>
            <feMerge>
                <feMergeNode in="shadowMatrixOuter1"></feMergeNode>
                <feMergeNode in="SourceGraphic"></feMergeNode>
            </feMerge>
        </filter>
    </defs>
    <g id="Page-1" stroke="none" stroke-width="1" fill="none" fill-rule="evenodd">
        <g id="arrow" filter="url(#filter-1)" transform="translate(10.000000, 10.000000)" fill-rule="nonzero">
            <g transform="translate(20.500000, 20.500000) scale(-1, 1) translate(-20.500000, -20.500000) ">
                <path d="M20.5,40.0465116 L20.5,40.0465116 C9.70506306,40.0465116 0.953488372,31.2949369 0.953488372,20.5 L0.953488372,20.5 C0.953488372,9.70506306 9.70506306,0.953488372 20.5,0.953488372 L20.5,0.953488372 C31.2949369,0.953488372 40.0465116,9.70506306 40.0465116,20.5 L40.0465116,20.5 C40.0465116,31.2949369 31.2949369,40.0465116 20.5,40.0465116 Z" id="Path" stroke="#979797" fill="#434343"></path>
                <path d="M20.5,41 C9.19614815,41 0,31.8038519 0,20.5 C0,9.19614815 9.19614815,0 20.5,0 C31.8038519,0 41,9.19614815 41,20.5 C41,31.8038519 31.8038519,41 20.5,41 Z M20.5,1.51851852 C10.0336111,1.51851852 1.51851852,10.0336111 1.51851852,20.5 C1.51851852,30.9663889 10.0336111,39.4814815 20.5,39.4814815 C30.9663889,39.4814815 39.4814815,30.9663889 39.4814815,20.5 C39.4814815,10.0336111 30.9663889,1.51851852 20.5,1.51851852 Z" id="Shape" fill="#FFFFFF"></path>
                <path d="M16.974761,30.5116279 C16.7788526,30.5116279 16.5829441,30.4361564 16.433717,30.2859834 C16.1344974,29.9848673 16.1344974,29.4981529 16.433717,29.1970368 L25.0758815,20.5000963 L16.433717,11.8031557 C16.1344974,11.5020397 16.1344974,11.0153252 16.433717,10.7142091 C16.7329365,10.4130931 17.2165855,10.4130931 17.5158051,10.7142091 L26.3148494,19.5690238 C26.8252828,20.0826924 26.8252828,20.9175001 26.3148494,21.4311687 L17.5158051,30.2859834 C17.3665779,30.4361564 17.1706695,30.5116279 16.974761,30.5116279 Z" id="Path" fill="#FFFFFF"></path>
            </g>
        </g>
    </g>
</svg>